<?xml version="1.0" standalone="no"?>
<!DOCTYPE svg PUBLIC "-//W3C//DTD SVG 1.1//EN" "http://www.w3.org/Graphics/SVG/1.1/DTD/svg11.dtd">
<svg t="1720441480217" class="icon" viewBox="0 0 1024 1024" version="1.1"
    xmlns="http://www.w3.org/2000/svg" p-id="50179" xmlns:xlink="http://www.w3.org/1999/xlink"
    width="1.2em" height="1.2em">
    <path
        d="M745.109333 339.434667C743.104 317.44 724.693333 298.666667 702.613333 298.666667L640 298.666667l0-64c0-66.752-55.189333-128-123.008-128l-9.984 0C439.189333 106.666667 384 167.914667 384 234.666667l0 64-62.613333 0c-22.08 0-40.490667 18.773333-42.496 40.768l-36.309333 386.24c-1.088 11.925333 2.901333 21.674667 10.986667 30.506667C261.674667 765.034667 273.109333 768 285.098667 768l453.824 0c11.989333 0 23.424-2.496 31.509333-11.328s12.053333-19.413333 11.008-31.338667L745.109333 339.434667zM426.666667 234.666667c0-42.496 36.8-85.333333 80.341333-85.333333l9.984 0C560.533333 149.333333 597.333333 192.170667 597.333333 234.666667l0 64-170.666667 0L426.666667 234.666667zM285.098667 725.333333l36.309333-384 381.205333 0 36.309333 384L285.098667 725.333333z"
        fill="#231815" p-id="50180"></path>
    <path
        d="M555.776 427.370667c-16.256 0-31.488 6.378667-43.648 17.642667C499.882667 433.322667 484.586667 426.666667 468.330667 426.666667c-32 0-64.576 26.432-64.917333 76.949333-0.277333 41.450667 30.762667 60.8 51.328 73.557333 3.178667 1.984 6.272 3.904 9.130667 5.824 15.744 10.666667 26.048 20.010667 27.861333 24.149333C494.464 616.128 502.549333 618.666667 511.914667 618.666667c0.106667 0 0.234667 0 0.341333 0 9.685333 0 17.813333-2.005333 20.138667-11.370667 1.941333-4.288 13.717333-16.448 28.416-27.178667 3.392-2.496 7.146667-3.84 11.008-6.314667 19.541333-12.565333 49.066667-31.04 48.789333-71.061333C620.245333 452.906667 587.733333 427.370667 555.776 427.370667zM548.736 538.965333c-4.608 2.965333-9.088 5.845333-13.12 8.810667-7.744 5.674667-16.064 12.949333-23.402667 20.693333-7.189333-7.552-15.637333-14.805333-24.448-20.8-3.306667-2.218667-6.848-4.437333-10.496-6.698667-21.290667-13.226667-31.317333-21.205333-31.189333-37.034667C446.229333 480.149333 457.728 469.333333 468.330667 469.333333c9.493333 0 18.432 1.429333 23.936 14.677333C495.573333 491.989333 503.338667 490.666667 511.978667 490.666667c0 0 0.021333 0 0.021333 0 8.618667 0 16.405333 1.28 19.690667-6.698667 5.269333-12.778667 14.272-17.173333 24.085333-17.173333 10.922667 0 21.994667 11.989333 22.165333 35.136C578.048 516.885333 569.109333 525.824 548.736 538.965333z"
        fill="#231815" p-id="50181"></path>
</svg>