<?xml version="1.0" standalone="no"?>
<!DOCTYPE svg PUBLIC "-//W3C//DTD SVG 1.1//EN" "http://www.w3.org/Graphics/SVG/1.1/DTD/svg11.dtd">
<svg t="1720441365368" class="icon" viewBox="0 0 1704 1024" version="1.1"
    xmlns="http://www.w3.org/2000/svg" p-id="45491" xmlns:xlink="http://www.w3.org/1999/xlink"
    width="1.5em" height="1.2em">
    <path
        d="M818.875594 441.441696c-6.363348 0-19.214817-6.363348-25.578165-12.726697l-89.461192-127.766053c-6.363348-19.214817-6.363348-38.304862 6.363349-51.15633 19.214817-6.363348 38.304862-6.363348 44.66821 12.726697l89.461191 127.766053c12.726697 12.726697 6.363348 31.941513-6.363348 44.66821-6.238577 0.124772-12.726697 6.48812-19.090045 6.48812z m0 0M895.610089 441.441696c-6.363348 0-12.726697 0-19.214817-6.363348-12.726697-12.726697-19.214817-31.941513-6.363348-44.66821L959.493116 262.519313c12.726697-12.726697 31.941513-19.214817 44.66821-6.363349 12.726697 12.726697 19.214817 31.941513 6.363348 44.66821l-89.461192 127.766054c-6.363348 6.48812-19.090045 12.851468-25.453393 12.851468z m0 0M1029.739491 613.87596H684.746192c-19.214817 0-31.941513-12.726697-31.941513-31.941514 0-19.214817 12.726697-31.941513 31.941513-31.941513h344.993299c19.214817 0 31.941513 12.726697 31.941513 31.941513 0 19.214817-12.851468 31.941513-31.941513 31.941514z m0 0"
        p-id="45492" fill="#2c2c2c"></path>
    <path
        d="M1029.739491 467.019861H684.746192c-19.214817 0-31.941513-12.726697-31.941513-31.941513 0-19.214817 12.726697-31.941513 31.941513-31.941514h344.993299c19.214817 0 31.941513 12.726697 31.941513 31.941514 0 19.090045-12.851468 31.941513-31.941513 31.941513z m0 0"
        p-id="45493" fill="#2c2c2c"></path>
    <path
        d="M857.180456 773.583526c-19.214817 0-31.941513-12.726697-31.941514-31.941513V454.168393c0-19.214817 12.726697-31.941513 31.941514-31.941514 19.214817 0 31.941513 12.726697 31.941513 31.941514v287.47362c0 19.214817-19.090045 31.941513-31.941513 31.941513z m0 0"
        p-id="45494" fill="#2c2c2c"></path>
    <path
        d="M857.180456 1022.752285h-12.726697C786.934081 1003.66224 614.499817 907.8377 537.765322 824.739856c-76.609723-89.461192-115.039357-172.434263-115.039356-268.258803V173.182893c0-12.726697 6.363348-25.578165 19.214816-31.941514L844.453759 0.623858h19.214817l396.024856 140.49275c12.726697 6.363348 19.214817 19.214817 19.214817 31.941513v370.571464c0 102.187888-31.941513 185.285732-115.039357 268.258803-70.246375 95.82454-242.80541 191.64908-293.836968 210.863897H857.180456zM493.097112 198.636286v351.356647c0 63.883027 12.726697 134.129402 95.82454 229.953942 63.883027 76.609723 210.863897 153.344218 268.258804 178.922383 57.519678-25.578165 204.375777-108.551237 268.258803-178.922383 83.097843-95.82454 95.82454-166.070915 95.82454-229.953942V198.636286L857.180456 64.506884 493.097112 198.636286z m0 0"
        p-id="45495" fill="#2c2c2c"></path>
</svg>