<?xml version="1.0" standalone="no"?>
<!DOCTYPE svg PUBLIC "-//W3C//DTD SVG 1.1//EN" "http://www.w3.org/Graphics/SVG/1.1/DTD/svg11.dtd">
<svg t="1720419053259" class="icon" viewBox="0 0 1024 1024" version="1.1"
    xmlns="http://www.w3.org/2000/svg" p-id="27924" xmlns:xlink="http://www.w3.org/1999/xlink"
    width="1.4em" height="1.4em">
    <path
        d="M251.364 544.294v-386.93l500.865 0.375-140.034 193.092L752.27 543.999l-500.906 0.295z m582.182-15.039L704.199 350.831l129.347-178.424c14.187-19.583 16.908-41.479 7.409-60.023-9.454-18.538-28.776-29.151-53.018-29.151H251.438c-41.031-0.062-74.375 33.1-74.54 74.131v745.005c0 20.567 16.669 37.236 37.236 37.236 20.56 0 37.229-16.669 37.229-37.236V618.465h536.573c24.391 0 43.826-10.613 53.245-29.118 9.421-18.464 6.665-40.4-7.635-60.092z m0 0"
        fill="#666666" p-id="27925"></path>
</svg>