<?xml version="1.0" encoding="UTF-8"?>
<svg version="1.1" xmlns="http://www.w3.org/2000/svg" width="162" height="129">
<path d="M0 0 C53.46 0 106.92 0 162 0 C162 42.57 162 85.14 162 129 C108.54 129 55.08 129 0 129 C0 86.43 0 43.86 0 0 Z " fill="#FDFDFD" transform="translate(0,0)"/>
<path d="M0 0 C1.4540625 0.0309375 1.4540625 0.0309375 2.9375 0.0625 C2.9375 3.3625 2.9375 6.6625 2.9375 10.0625 C4.2575 10.0625 5.5775 10.0625 6.9375 10.0625 C7.081875 8.763125 7.22625 7.46375 7.375 6.125 C7.8125 2.1875 7.8125 2.1875 8.9375 1.0625 C11.38580426 0.97406207 13.80570599 0.94721248 16.25390625 0.96484375 C16.98496078 0.9662587 17.71601532 0.96767365 18.46922302 0.96913147 C20.81285632 0.97474592 23.15639539 0.98730078 25.5 1 C27.08528508 1.00501314 28.67057166 1.00957637 30.25585938 1.01367188 C34.1497761 1.02472003 38.04362205 1.04199428 41.9375 1.0625 C41.9375 5.6825 41.9375 10.3025 41.9375 15.0625 C39.9575 15.0625 37.9775 15.0625 35.9375 15.0625 C36.4325 16.155625 36.9275 17.24875 37.4375 18.375 C38.9375 22.0625 38.9375 22.0625 38.9375 25.0625 C36.9575 25.0625 34.9775 25.0625 32.9375 25.0625 C32.9375 24.4025 32.9375 23.7425 32.9375 23.0625 C31.9475 23.0625 30.9575 23.0625 29.9375 23.0625 C29.6075 25.0425 29.2775 27.0225 28.9375 29.0625 C33.2275 29.0625 37.5175 29.0625 41.9375 29.0625 C41.9375 31.0425 41.9375 33.0225 41.9375 35.0625 C37.6475 35.0625 33.3575 35.0625 28.9375 35.0625 C28.9375 43.6425 28.9375 52.2225 28.9375 61.0625 C26.6275 61.0625 24.3175 61.0625 21.9375 61.0625 C21.9375 52.4825 21.9375 43.9025 21.9375 35.0625 C15.6675 35.0625 9.3975 35.0625 2.9375 35.0625 C2.94910156 36.85558594 2.96070313 38.64867187 2.97265625 40.49609375 C2.98203229 42.83072813 2.99113269 45.16536363 3 47.5 C3.00837891 48.68400391 3.01675781 49.86800781 3.02539062 51.08789062 C3.02861328 52.21259766 3.03183594 53.33730469 3.03515625 54.49609375 C3.04039307 55.53822021 3.04562988 56.58034668 3.05102539 57.65405273 C2.9375 60.0625 2.9375 60.0625 1.9375 61.0625 C0.41821962 61.13429964 -1.10417482 61.14642007 -2.625 61.125 C-3.45128906 61.11597656 -4.27757812 61.10695312 -5.12890625 61.09765625 C-5.76699219 61.08605469 -6.40507812 61.07445312 -7.0625 61.0625 C-8.5231285 58.41511084 -9.0625 57.16801666 -9.0625 54.0625 C-7.4125 54.0625 -5.7625 54.0625 -4.0625 54.0625 C-4.0625 49.1125 -4.0625 44.1625 -4.0625 39.0625 C-6.5375 39.5575 -6.5375 39.5575 -9.0625 40.0625 C-9.0625 37.7525 -9.0625 35.4425 -9.0625 33.0625 C-8.41796875 32.87945312 -7.7734375 32.69640625 -7.109375 32.5078125 C-4.68805056 31.15438105 -4.68805056 31.15438105 -4.453125 27.8046875 C-4.40671875 26.52851562 -4.3603125 25.25234375 -4.3125 23.9375 C-4.25578125 22.65617187 -4.1990625 21.37484375 -4.140625 20.0546875 C-4.11484375 19.06726563 -4.0890625 18.07984375 -4.0625 17.0625 C-5.7125 17.0625 -7.3625 17.0625 -9.0625 17.0625 C-9.0625 14.7525 -9.0625 12.4425 -9.0625 10.0625 C-7.4125 10.0625 -5.7625 10.0625 -4.0625 10.0625 C-4.07410156 9.42441406 -4.08570313 8.78632812 -4.09765625 8.12890625 C-4.10667969 7.30261719 -4.11570312 6.47632813 -4.125 5.625 C-4.13660156 4.80128906 -4.14820313 3.97757813 -4.16015625 3.12890625 C-4.00103255 -0.23815127 -3.43619093 0.07012635 0 0 Z " fill="#E6E6E6" transform="translate(36.0625,34.9375)"/>
<path d="M0 0 C1.5778125 0.2475 1.5778125 0.2475 3.1875 0.5 C1.3125 5.25 1.3125 5.25 0.1875 7.5 C2.4975 7.83 4.8075 8.16 7.1875 8.5 C7.31125 7.9225 7.435 7.345 7.5625 6.75 C8.19398824 4.47664233 9.07608191 2.5746471 10.1875 0.5 C12.8275 0.5 15.4675 0.5 18.1875 0.5 C16.69845825 4.39608498 14.94371287 8.09097018 13.0625 11.8125 C12.52367188 12.88113281 11.98484375 13.94976562 11.4296875 15.05078125 C11.01976563 15.85902344 10.60984375 16.66726562 10.1875 17.5 C13.4875 17.5 16.7875 17.5 20.1875 17.5 C19.6925 16.3553125 19.6925 16.3553125 19.1875 15.1875 C18.1875 12.5 18.1875 12.5 18.1875 9.5 C20.1675 9.5 22.1475 9.5 24.1875 9.5 C25.22057771 11.26371818 26.23862049 13.03625033 27.25 14.8125 C27.81847656 15.79863281 28.38695312 16.78476563 28.97265625 17.80078125 C30.1875 20.5 30.1875 20.5 29.1875 23.5 C23.5775 23.5 17.9675 23.5 12.1875 23.5 C12.22707157 28.72063275 12.22707157 28.72063275 12.27758789 33.94116211 C12.28473945 35.79433759 12.2377852 37.64749308 12.1875 39.5 C11.1875 40.5 11.1875 40.5 8.68359375 40.59765625 C7.67425781 40.58605469 6.66492188 40.57445312 5.625 40.5625 C4.61308594 40.55347656 3.60117188 40.54445312 2.55859375 40.53515625 C1.38490234 40.51775391 1.38490234 40.51775391 0.1875 40.5 C-0.4725 38.52 -1.1325 36.54 -1.8125 34.5 C0.4975 34.5 2.8075 34.5 5.1875 34.5 C5.1875 30.87 5.1875 27.24 5.1875 23.5 C-1.0825 23.5 -7.3525 23.5 -13.8125 23.5 C-13.8125 21.52 -13.8125 19.54 -13.8125 17.5 C-12.74128906 17.45101562 -11.67007813 17.40203125 -10.56640625 17.3515625 C-9.16924361 17.27654706 -7.7721095 17.2009987 -6.375 17.125 C-5.66794922 17.0940625 -4.96089844 17.063125 -4.23242188 17.03125 C-2.42010812 16.92719371 -0.61432012 16.72080108 1.1875 16.5 C1.5175 15.84 1.8475 15.18 2.1875 14.5 C-2.1025 14.17 -6.3925 13.84 -10.8125 13.5 C-5.71215398 0.74913495 -5.71215398 0.74913495 0 0 Z " fill="#252526" transform="translate(110.8125,55.5)"/>
<path d="M0 0 C2.31 0 4.62 0 7 0 C7 1.32 7 2.64 7 4 C8.14339844 3.98839844 9.28679687 3.97679687 10.46484375 3.96484375 C11.95572754 3.95546712 13.44661309 3.94636679 14.9375 3.9375 C16.06961914 3.92493164 16.06961914 3.92493164 17.22460938 3.91210938 C19.14994313 3.90347559 21.07535581 3.94775667 23 4 C24 5 24 5 24 10 C18.39 10 12.78 10 7 10 C7 11.32 7 12.64 7 14 C13.6 14 20.2 14 27 14 C27 18.29 27 22.58 27 27 C25.02 27 23.04 27 21 27 C21 24.36 21 21.72 21 19 C9.45 19 -2.1 19 -14 19 C-14 21.64 -14 24.28 -14 27 C-16.31 27 -18.62 27 -21 27 C-21 22.71 -21 18.42 -21 14 C-14.07 14 -7.14 14 0 14 C0 12.68 0 11.36 0 10 C-5.61 10 -11.22 10 -17 10 C-17 8.02 -17 6.04 -17 4 C-11.39 4 -5.78 4 0 4 C0 2.68 0 1.36 0 0 Z " fill="#1D1C1F" transform="translate(115,34)"/>
<path d="M0 0 C1.4540625 0.0309375 1.4540625 0.0309375 2.9375 0.0625 C2.9375 3.3625 2.9375 6.6625 2.9375 10.0625 C4.2575 10.0625 5.5775 10.0625 6.9375 10.0625 C6.9375 12.3725 6.9375 14.6825 6.9375 17.0625 C5.6175 17.0625 4.2975 17.0625 2.9375 17.0625 C3.2675 20.3625 3.5975 23.6625 3.9375 27.0625 C5.2575 26.7325 6.5775 26.4025 7.9375 26.0625 C7.9375 28.7025 7.9375 31.3425 7.9375 34.0625 C5.4625 34.5575 5.4625 34.5575 2.9375 35.0625 C2.94273682 35.8145874 2.94797363 36.5666748 2.95336914 37.34155273 C2.97407227 40.72769342 2.98713877 44.11382084 3 47.5 C3.00837891 48.68400391 3.01675781 49.86800781 3.02539062 51.08789062 C3.02861328 52.21259766 3.03183594 53.33730469 3.03515625 54.49609375 C3.04039307 55.53822021 3.04562988 56.58034668 3.05102539 57.65405273 C2.9375 60.0625 2.9375 60.0625 1.9375 61.0625 C0.41821962 61.13429964 -1.10417482 61.14642007 -2.625 61.125 C-3.45128906 61.11597656 -4.27757812 61.10695312 -5.12890625 61.09765625 C-5.76699219 61.08605469 -6.40507812 61.07445312 -7.0625 61.0625 C-8.5231285 58.41511084 -9.0625 57.16801666 -9.0625 54.0625 C-7.4125 54.0625 -5.7625 54.0625 -4.0625 54.0625 C-4.0625 49.1125 -4.0625 44.1625 -4.0625 39.0625 C-6.5375 39.5575 -6.5375 39.5575 -9.0625 40.0625 C-9.0625 37.7525 -9.0625 35.4425 -9.0625 33.0625 C-8.41796875 32.87945312 -7.7734375 32.69640625 -7.109375 32.5078125 C-4.68805056 31.15438105 -4.68805056 31.15438105 -4.453125 27.8046875 C-4.40671875 26.52851562 -4.3603125 25.25234375 -4.3125 23.9375 C-4.25578125 22.65617187 -4.1990625 21.37484375 -4.140625 20.0546875 C-4.11484375 19.06726563 -4.0890625 18.07984375 -4.0625 17.0625 C-5.7125 17.0625 -7.3625 17.0625 -9.0625 17.0625 C-9.0625 14.7525 -9.0625 12.4425 -9.0625 10.0625 C-7.4125 10.0625 -5.7625 10.0625 -4.0625 10.0625 C-4.07410156 9.42441406 -4.08570313 8.78632812 -4.09765625 8.12890625 C-4.10667969 7.30261719 -4.11570312 6.47632813 -4.125 5.625 C-4.13660156 4.80128906 -4.14820313 3.97757813 -4.16015625 3.12890625 C-4.00103255 -0.23815127 -3.43619093 0.07012635 0 0 Z " fill="#262626" transform="translate(36.0625,34.9375)"/>
<path d="M0 0 C1.98 0 3.96 0 6 0 C6 2.64 6 5.28 6 8 C10.29 8 14.58 8 19 8 C19 9.98 19 11.96 19 14 C14.71 14 10.42 14 6 14 C6 22.58 6 31.16 6 40 C3.69 40 1.38 40 -1 40 C-1 31.42 -1 22.84 -1 14 C-5.29 14 -9.58 14 -14 14 C-14 12.02 -14 10.04 -14 8 C-9.38 8 -4.76 8 0 8 C0 5.36 0 2.72 0 0 Z " fill="#262626" transform="translate(59,56)"/>
<path d="M0 0 C10.89 0 21.78 0 33 0 C33 4.29 33 8.58 33 13 C31.02 13 29.04 13 27 13 C27 10.69 27 8.38 27 6 C20.07 6 13.14 6 6 6 C6 8.31 6 10.62 6 13 C4.02 13 2.04 13 0 13 C0 8.71 0 4.42 0 0 Z " fill="#202020" transform="translate(45,36)"/>
<path d="M0 0 C1.98 0 3.96 0 6 0 C7.00508801 1.78881736 8.00392736 3.58114696 9 5.375 C9.556875 6.37273437 10.11375 7.37046875 10.6875 8.3984375 C12 11 12 11 12 13 C5.73 13 -0.54 13 -7 13 C-7 11.35 -7 9.7 -7 8 C-4.03 8 -1.06 8 2 8 C1.67 7.236875 1.34 6.47375 1 5.6875 C0 3 0 3 0 0 Z " fill="#161618" transform="translate(129,65)"/>
<path d="M0 0 C1.98 0 3.96 0 6 0 C4.57142857 17.42857143 4.57142857 17.42857143 1 21 C-0.99958364 21.04080783 -3.00045254 21.04254356 -5 21 C-3.68882339 13.88879511 -1.98279484 6.95300057 0 0 Z " fill="#222222" transform="translate(49,73)"/>
<path d="M0 0 C1.98 0 3.96 0 6 0 C6.84226 2.55986879 7.67398551 5.12239015 8.5 7.6875 C8.73847656 8.40873047 8.97695312 9.12996094 9.22265625 9.87304688 C10.44398994 13.69407657 11.32075577 16.93442056 11 21 C9.02 21 7.04 21 5 21 C4.16267257 17.87605609 3.33082018 14.75068026 2.5 11.625 C2.26152344 10.73554687 2.02304688 9.84609375 1.77734375 8.9296875 C1.55175781 8.07890625 1.32617188 7.228125 1.09375 6.3515625 C0.88427734 5.56604004 0.67480469 4.78051758 0.45898438 3.97119141 C0 2 0 2 0 0 Z " fill="#1D1D1D" transform="translate(67,73)"/>
<path d="M0 0 C1.093125 0.0825 2.18625 0.165 3.3125 0.25 C1.54820801 5.22209562 -1.0814166 9.68438061 -3.6875 14.25 C-6.3275 14.25 -8.9675 14.25 -11.6875 14.25 C-10.92182134 12.66416752 -10.14972035 11.08143506 -9.375 9.5 C-8.94574219 8.61828125 -8.51648438 7.7365625 -8.07421875 6.828125 C-4.56809701 0.30970149 -4.56809701 0.30970149 0 0 Z " fill="#1E1E1E" transform="translate(106.6875,80.75)"/>
<path d="M0 0 C3.125 -0.5625 3.125 -0.5625 7 0 C10.80887456 4.02382233 13.05711502 8.86458102 15 14 C9.99771913 15.05311176 9.99771913 15.05311176 7 14 C3.96536725 10.22230764 0 5.01498142 0 0 Z " fill="#1C1C1C" transform="translate(127,81)"/>
<path d="M0 0 C1.98 0 3.96 0 6 0 C5.34580901 5.06998019 3.1453591 9.41990777 1 14 C-0.98 14 -2.96 14 -5 14 C-4.54636829 12.41531323 -4.08688548 10.83230076 -3.625 9.25 C-3.36976562 8.36828125 -3.11453125 7.4865625 -2.8515625 6.578125 C-2.0790066 4.23919428 -1.16374324 2.16557438 0 0 Z " fill="#1F1F1F" transform="translate(53,46)"/>
<path d="M0 0 C1.98 0 3.96 0 6 0 C6.84026396 1.76755526 7.67198722 3.53917263 8.5 5.3125 C8.9640625 6.29863281 9.428125 7.28476562 9.90625 8.30078125 C11 11 11 11 11 14 C9.02 14 7.04 14 5 14 C4.16235732 12.04350603 3.33000941 10.08474444 2.5 8.125 C2.0359375 7.03445312 1.571875 5.94390625 1.09375 4.8203125 C0 2 0 2 0 0 Z " fill="#1F1F1F" transform="translate(64,46)"/>
<path d="M0 0 C0.33 0.66 0.66 1.32 1 2 C2.89533342 2.46523063 2.89533342 2.46523063 5.0625 2.625 C6.361875 2.74875 7.66125 2.8725 9 3 C9 3.33 9 3.66 9 4 C7.02 4 5.04 4 3 4 C3.495 5.1446875 3.495 5.1446875 4 6.3125 C5 9 5 9 5 12 C1.7 12 -1.6 12 -5 12 C-3.68938409 7.76570244 -2.05643741 3.92592596 0 0 Z " fill="#EEEEEF" transform="translate(126,61)"/>
<path d="M0 0 C1.98 0 3.96 0 6 0 C10 6.75 10 6.75 10 9 C7.36 8.67 4.72 8.34 2 8 C0.74335022 5.09399739 0 3.20395416 0 0 Z " fill="#1D1C22" transform="translate(129,65)"/>
<path d="M0 0 C1.98 0 3.96 0 6 0 C6 2.31 6 4.62 6 7 C5.34 7 4.68 7 4 7 C4 5.68 4 4.36 4 3 C2.02 3.99 2.02 3.99 0 5 C0 3.35 0 1.7 0 0 Z " fill="#262626" transform="translate(59,56)"/>
</svg>
