<?xml version="1.0" standalone="no"?>
<!DOCTYPE svg PUBLIC "-//W3C//DTD SVG 1.1//EN" "http://www.w3.org/Graphics/SVG/1.1/DTD/svg11.dtd">
<svg t="1720429010974" class="icon" viewBox="0 0 1024 1024" version="1.1"
    xmlns="http://www.w3.org/2000/svg" p-id="34002" xmlns:xlink="http://www.w3.org/1999/xlink"
    width="1.4em" height="1.4em">
    <path
        d="M277.333333 224.213333a21.333333 21.333333 0 0 0-30.08 0c-77.44 78.08-74.24 98.346667-72.96 106.666667a21.333333 21.333333 0 0 0 21.333334 17.92h3.413333a21.333333 21.333333 0 0 0 17.706667-18.986667c1.493333-3.84 10.666667-23.68 61.013333-74.24a21.333333 21.333333 0 0 0-0.426667-31.36zM340.053333 193.92a21.333333 21.333333 0 0 0 10.666667-2.773333 395.306667 395.306667 0 0 1 242.986667-36.053334 486.186667 486.186667 0 0 1 73.173333 18.986667 21.333333 21.333333 0 0 0 27.093333-13.44 21.333333 21.333333 0 0 0-13.226666-27.093333 548.053333 548.053333 0 0 0-79.786667-21.333334 430.933333 430.933333 0 0 0-271.573333 42.026667 21.333333 21.333333 0 0 0 10.666666 39.68zM776.106667 725.333333L725.333333 592.64a21.333333 21.333333 0 1 0-39.68 15.573333l52.053334 133.12a104.106667 104.106667 0 1 1-192 82.133334l-34.986667-81.706667a393.813333 393.813333 0 0 1-16.426667-48.426667c-11.733333-40.746667-23.04-79.146667-80.213333-101.12-62.506667-23.893333-105.6-58.026667-115.2-91.733333a173.653333 173.653333 0 0 1 15.36-135.04 215.893333 215.893333 0 0 1 133.76-96c79.786667-22.826667 158.933333-16.64 211.626667 16.213333a115.2 115.2 0 0 1 55.68 78.506667 185.173333 185.173333 0 0 1-17.92 101.333333A178.56 178.56 0 0 1 614.4 533.333333a21.333333 21.333333 0 0 0 14.72 39.893334c42.666667-15.573333 93.653333-58.666667 106.666667-90.453334a225.493333 225.493333 0 0 0 21.333333-125.226666 157.013333 157.013333 0 0 0-75.093333-106.666667c-62.72-39.253333-154.666667-47.146667-245.973334-21.333333A257.706667 257.706667 0 0 0 277.333333 344.32a215.893333 215.893333 0 0 0-19.84 167.68c19.2 66.986667 105.173333 106.666667 141.226667 119.893333s42.666667 35.2 54.4 73.173334a425.386667 425.386667 0 0 0 18.133333 53.12l34.986667 81.92a147.84 147.84 0 0 0 134.826667 88.96 144.213333 144.213333 0 0 0 57.813333-11.733334 146.346667 146.346667 0 0 0 77.226667-192z"
        fill="#333333" p-id="34003"></path>
</svg>