<?xml version="1.0" standalone="no"?>
<!DOCTYPE svg PUBLIC "-//W3C//DTD SVG 1.1//EN" "http://www.w3.org/Graphics/SVG/1.1/DTD/svg11.dtd">
<svg t="1720428955231" class="icon" viewBox="0 0 1024 1024" version="1.1"
    xmlns="http://www.w3.org/2000/svg" p-id="31158" xmlns:xlink="http://www.w3.org/1999/xlink"
    width="1.2em" height="1.2em">
    <path
        d="M512 85.333333A426.666667 426.666667 0 1 1 85.333333 512 426.666667 426.666667 0 0 1 512 85.333333m0-85.333333a512 512 0 1 0 512 512A512 512 0 0 0 512 0z"
        fill="#2c2c2c" p-id="31159"></path>
    <path
        d="M762.026667 302.933333c-17.493333-14.506667-37.546667 4.266667-37.546667 4.266667l-298.666667 279.893333-119.04-97.28a29.44 29.44 0 0 0-42.666666-4.266666c-20.053333 14.933333-3.84 40.106667-3.84 40.106666l134.4 184.746667a30.72 30.72 0 0 0 52.053333 0l311.04-371.626667c15.36-19.2 10.24-31.573333 4.266667-35.84z"
        fill="#2c2c2c" p-id="31160"></path>
</svg>