<?xml version="1.0" standalone="no"?>
<!DOCTYPE svg PUBLIC "-//W3C//DTD SVG 1.1//EN" "http://www.w3.org/Graphics/SVG/1.1/DTD/svg11.dtd">
<svg t="1720419089816" class="icon" viewBox="0 0 1024 1024" version="1.1"
    xmlns="http://www.w3.org/2000/svg" p-id="29034" xmlns:xlink="http://www.w3.org/1999/xlink"
    width="1.4em" height="1.4em">
    <path
        d="M704 384h-114.752l73.376-73.376A32 32 0 0 0 640 256H461.264l9.36-9.376a32 32 0 1 0-45.248-45.248l-64 64A32 32 0 0 0 384 320h178.752l-64 64H320a32 32 0 0 0-32 32v128a32 32 0 0 0 32 32h114.736l-137.36 137.376a32 32 0 1 0 45.248 45.248L525.248 576H704a32 32 0 0 0 32-32v-128a32 32 0 0 0-32-32z m-352 64h128v64h-128v-64z m320 64h-128v-64h128v64z"
        p-id="29035" fill="#666666"></path>
    <path d="M736 768H544a32 32 0 0 1-32-32v-96a32 32 0 0 1 64 0v64h160a32 32 0 0 1 0 64z"
        p-id="29036" fill="#666666"></path>
    <path
        d="M512 960c-71.872 0-143.344-17.44-206.672-50.432a32 32 0 1 1 29.568-56.752A379.584 379.584 0 0 0 512 896c211.744 0 384-172.256 384-384S723.744 128 512 128 128 300.256 128 512c0 61.84 15.024 123.264 43.472 177.664a32 32 0 1 1-56.72 29.648A449.152 449.152 0 0 1 64 512C64 264.976 264.976 64 512 64s448 200.976 448 448-200.976 448-448 448z"
        p-id="29037" fill="#666666"></path>
    <path d="M217.84 806.16m-32 0a32 32 0 1 0 64 0 32 32 0 1 0-64 0Z" p-id="29038" fill="#666666"></path>
</svg>