<?xml version="1.0" standalone="no"?>
<!DOCTYPE svg PUBLIC "-//W3C//DTD SVG 1.1//EN" "http://www.w3.org/Graphics/SVG/1.1/DTD/svg11.dtd">
<svg t="1720419010465" class="icon" viewBox="0 0 1024 1024" version="1.1"
    xmlns="http://www.w3.org/2000/svg" p-id="25908" xmlns:xlink="http://www.w3.org/1999/xlink"
    width="1.4em" height="1.4em">
    <path
        d="M510.9248 160.896a356.7872 356.7872 0 1 0 356.7616 356.7872A356.7872 356.7872 0 0 0 510.9248 160.896z m0 653.056a296.2688 296.2688 0 1 1 296.2688-296.2688 296.2688 296.2688 0 0 1-296.2688 296.2688z m127.104-465.92h-47.3856a6.272 6.272 0 0 0-5.6064 3.5072l-72.2688 143.36h-2.7904l-72.0128-143.36a6.3744 6.3744 0 0 0-5.6576-3.5584H384a6.4256 6.4256 0 0 0-5.6064 9.472l88.7808 163.0976h-48.9216a6.3744 6.3744 0 0 0-6.3744 6.4256v23.808a6.3744 6.3744 0 0 0 6.3744 6.3744h65.1008v32.9728h-65.2032a6.3744 6.3744 0 0 0-6.3744 6.3744v23.808a6.3744 6.3744 0 0 0 6.3744 6.3744h65.0752v54.2208a6.3744 6.3744 0 0 0 6.3744 6.3744h43.2128a6.3744 6.3744 0 0 0 6.3744-6.3744v-54.0928h65.3312a6.3744 6.3744 0 0 0 6.3744-6.3744v-23.808a6.3744 6.3744 0 0 0-6.3744-6.3744h-65.28v-33.1264h65.4592a6.3744 6.3744 0 0 0 6.3744-6.3744v-23.7824a6.3744 6.3744 0 0 0-6.3744-6.3744h-49.536l88.5248-163.0976a6.8864 6.8864 0 0 0 0.768-3.0464 6.528 6.528 0 0 0-6.4256-6.3232z"
        p-id="25909" fill="#666666"></path>
</svg>