<?xml version="1.0" standalone="no"?>
<!DOCTYPE svg PUBLIC "-//W3C//DTD SVG 1.1//EN" "http://www.w3.org/Graphics/SVG/1.1/DTD/svg11.dtd">
<svg t="1720530471265" class="icon" viewBox="0 0 3915 1024" version="1.1"
    xmlns="http://www.w3.org/2000/svg" p-id="9730" xmlns:xlink="http://www.w3.org/1999/xlink"
    width="1.8em" height="1em">
    <path
        d="M3634.356706 0l-118.543059 507.000471c-40.538353 154.563765-69.872941 284.551529-237.628235 284.551529-89.148235 0-138.842353-43.791059-136.372706-116.254118 1.807059-53.368471 17.769412-101.255529 28.551529-149.142588L3297.460706 0h-243.832471l-124.084706 513.807059c-16.564706 64.331294-30.298353 123.120941-33.069176 205.221647-5.12 153.178353 124.325647 281.780706 369.423059 281.780706 339.606588 0 420.201412-176.489412 481.460706-439.115294L3878.249412 0h-243.892706zM1280.843294 675.237647c1.807059-53.308235 17.769412-101.195294 28.55153-149.082353L1436.491294 0H1192.658824l-124.084706 513.807059c-16.564706 64.331294-30.298353 123.120941-33.069177 205.221647-4.698353 141.010824 104.628706 261.12 313.22353 279.311059l48.549647-207.691294c-76.498824-6.144-118.663529-48.489412-116.434824-115.410824zM2017.219765 0h-243.832471l-47.043765 201.185882h244.013177L2017.28 0z m-300.634353 242.989176l-61.741177 264.011295c-38.791529 147.757176-67.343059 272.926118-216.365176 283.708235l-49.03153 209.859765c5.12 0.120471 10.24 0.240941 15.480471 0.240941 339.546353 0 420.201412-176.489412 481.460706-439.115294l74.270118-318.704942h-244.073412z m788.48-41.803294l37.285647-159.623529h-160.346353l9.758118-41.562353h-227.689412L1925.12 1000.809412h232.026353L2344.658824 201.185882h160.346352zM802.936471 0l-83.365647 362.134588H393.818353L479.713882 0H237.327059L0 1000.809412h242.386824l103.725176-437.488941h326.294588l-110.953412 437.488941h246.603295L1045.383529 0H802.936471z m1790.192941 4.457412l-46.381177 197.571764c77.703529 11.203765 100.592941 49.694118 96.376471 115.410824-5.300706 81.197176-57.464471 119.868235-170.827294 119.868235h-141.372236l-50.778352 218.714353h187.693176c225.460706 0 404.239059-119.145412 412.431059-363.941647 5.782588-172.694588-105.411765-278.106353-287.141647-287.623529z"
        fill="#2c2c2c" p-id="9731"></path>
</svg>